<?xml version="1.0" encoding="UTF-8"?>
<!DOCTYPE svg PUBLIC "-//W3C//DTD SVG 1.1//EN" "http://www.w3.org/Graphics/SVG/1.1/DTD/svg11.dtd">
<svg xmlns="http://www.w3.org/2000/svg" version="1.1" width="680px" height="680px" style="shape-rendering:geometricPrecision; text-rendering:geometricPrecision; image-rendering:optimizeQuality; fill-rule:evenodd; clip-rule:evenodd" xmlns:xlink="http://www.w3.org/1999/xlink">
<g><path style="opacity:1" fill="#fefefe" d="M -0.5,-0.5 C 226.167,-0.5 452.833,-0.5 679.5,-0.5C 679.5,226.167 679.5,452.833 679.5,679.5C 452.833,679.5 226.167,679.5 -0.5,679.5C -0.5,452.833 -0.5,226.167 -0.5,-0.5 Z"/></g>
<g><path style="opacity:1" fill="#13a246" d="M 335.5,107.5 C 391.51,105.407 428.677,130.741 447,183.5C 449.972,196.999 451.138,210.666 450.5,224.5C 466.557,224.062 482.557,224.562 498.5,226C 506.791,228.624 512.958,233.791 517,241.5C 519.073,248.005 520.406,254.672 521,261.5C 528.479,318.814 535.813,376.148 543,433.5C 548.274,469.735 536.108,498.235 506.5,519C 496.012,525.274 484.679,528.94 472.5,530C 388.833,530.667 305.167,530.667 221.5,530C 181.504,522.005 158.671,497.839 153,457.5C 152.333,452.5 152.333,447.5 153,442.5C 160.866,377.106 169.199,311.773 178,246.5C 181.41,236.756 187.91,229.923 197.5,226C 213.776,224.56 230.11,224.06 246.5,224.5C 243.557,171.528 266.224,134.362 314.5,113C 321.514,110.705 328.514,108.872 335.5,107.5 Z"/></g>
<g><path style="opacity:1" fill="#fefefe" d="M 340.5,154.5 C 373.093,152.609 393.926,167.275 403,198.5C 403.5,207.16 403.666,215.827 403.5,224.5C 366.833,224.5 330.167,224.5 293.5,224.5C 289.816,187.802 305.483,164.468 340.5,154.5 Z"/></g>
</svg>
